<svg xmlns="http://www.w3.org/2000/svg" id="canvas" viewBox="252.731 368.390 1152.646 128.534"><path d="M 341.48,373.42 C 340.95 372.86, 340.20 372.27, 338.50 371.89 C 336.80 371.52, 335.62 371.18, 332.96 371.55 C 330.30 371.92, 328.61 372.28, 325.20 373.74 C 321.79 375.21, 319.99 376.26, 315.91 378.87 C 311.83 381.48, 309.49 383.07, 304.79 386.80 C 300.09 390.53, 297.35 392.75, 292.42 397.52 C 287.48 402.30, 284.72 405.15, 280.11 410.68 C 275.49 416.21, 273.11 419.37, 269.35 425.17 C 265.58 430.98, 263.81 434.10, 261.28 439.72 C 258.76 445.34, 257.78 448.22, 256.72 453.27 C 255.66 458.33, 255.52 460.76, 255.98 465.01 C 256.44 469.26, 257.08 471.24, 259.04 474.53 C 261.00 477.83, 262.48 479.29, 265.78 481.48 C 269.09 483.66, 271.25 484.45, 275.56 485.45 C 279.87 486.46, 282.42 486.60, 287.33 486.51 C 292.25 486.42, 295.00 486.04, 300.14 485.00 C 305.27 483.96, 308.06 483.17, 313.02 481.30 C 317.97 479.43, 320.49 478.19, 324.89 475.66 C 329.29 473.14, 331.43 471.60, 335.01 468.67 C 338.59 465.74, 340.23 464.11, 342.80 461.00 C 345.36 457.89, 346.35 456.18, 347.85 453.12 C 349.34 450.05, 349.85 448.54, 350.26 445.68 C 350.67 442.82, 350.39 441.31, 349.88 438.82 C 349.37 436.32, 348.84 435.18, 347.72 433.19 C 346.60 431.19, 345.81 430.28, 344.28 428.85 C 342.74 427.42, 341.73 426.86, 340.05 426.04 C 338.37 425.21, 337.41 424.95, 335.86 424.72 C 334.31 424.50, 333.46 424.54, 332.28 424.92 C 331.10 425.30, 330.49 425.78, 329.96 426.62 C 329.42 427.47, 329.46 428.25, 329.59 429.16 C 329.72 430.07, 330.04 430.65, 330.60 431.16 C 331.16 431.66, 331.87 431.82, 332.41 431.69 C 332.96 431.55, 333.27 430.98, 333.34 430.48 C 333.41 429.98, 333.03 429.60, 332.77 429.19 C 332.52 428.79, 332.26 428.73, 332.04 428.45 C 331.82 428.16, 331.52 427.96, 331.68 427.75 C 331.83 427.55, 332.07 427.45, 332.80 427.43 C 333.53 427.41, 334.15 427.38, 335.33 427.65 C 336.51 427.92, 337.31 428.11, 338.70 428.80 C 340.08 429.48, 340.95 429.90, 342.25 431.06 C 343.55 432.23, 344.23 432.96, 345.20 434.63 C 346.17 436.29, 346.65 437.25, 347.11 439.39 C 347.57 441.53, 347.79 442.79, 347.49 445.32 C 347.20 447.86, 346.89 449.21, 345.62 452.08 C 344.34 454.94, 343.49 456.63, 341.12 459.65 C 338.75 462.67, 337.20 464.30, 333.78 467.18 C 330.35 470.07, 328.26 471.60, 323.98 474.09 C 319.70 476.58, 317.22 477.80, 312.38 479.62 C 307.54 481.44, 304.79 482.20, 299.78 483.18 C 294.76 484.17, 292.05 484.49, 287.31 484.53 C 282.56 484.58, 280.12 484.37, 276.05 483.40 C 271.98 482.42, 270.02 481.66, 266.97 479.67 C 263.92 477.69, 262.63 476.44, 260.80 473.47 C 258.97 470.49, 258.31 468.77, 257.81 464.79 C 257.31 460.82, 257.34 458.49, 258.30 453.59 C 259.26 448.70, 260.16 445.84, 262.60 440.30 C 265.04 434.76, 266.77 431.66, 270.49 425.91 C 274.20 420.16, 276.57 417.02, 281.16 411.56 C 285.75 406.09, 288.50 403.27, 293.44 398.59 C 298.38 393.91, 301.13 391.73, 305.84 388.15 C 310.55 384.57, 312.94 383.04, 317.01 380.68 C 321.09 378.33, 322.93 377.51, 326.22 376.38 C 329.51 375.24, 331.05 375.36, 333.45 375.01 C 335.86 374.67, 336.70 374.71, 338.24 374.64 C 339.78 374.57, 340.50 374.93, 341.15 374.68 C 341.79 374.44, 342.01 373.98, 341.48 373.42" style="stroke: black; fill: black;"/><path d="M 391.87,461.79 C 392.43 462.03, 392.94 462.09, 394.33 461.87 C 395.73 461.66, 396.71 461.49, 398.85 460.72 C 401.00 459.95, 402.38 459.36, 405.07 458.02 C 407.75 456.68, 409.31 455.71, 412.27 454.03 C 415.24 452.34, 416.98 451.37, 419.89 449.59 C 422.80 447.81, 424.44 446.95, 426.82 445.11 C 429.21 443.27, 430.41 442.23, 431.82 440.38 C 433.22 438.53, 433.74 437.54, 433.85 435.85 C 433.97 434.15, 433.73 433.16, 432.40 431.90 C 431.06 430.64, 429.91 429.85, 427.19 429.56 C 424.48 429.27, 422.64 429.53, 418.83 430.43 C 415.03 431.34, 412.69 432.13, 408.18 434.08 C 403.66 436.03, 400.92 437.40, 396.26 440.18 C 391.61 442.97, 389.01 444.76, 384.90 448.00 C 380.80 451.23, 378.75 453.09, 375.74 456.36 C 372.74 459.64, 371.34 461.29, 369.88 464.36 C 368.42 467.44, 368.11 469.03, 368.45 471.72 C 368.80 474.41, 369.56 475.81, 371.61 477.80 C 373.67 479.80, 375.30 480.54, 378.75 481.68 C 382.20 482.82, 384.39 483.17, 388.88 483.51 C 393.37 483.85, 396.04 483.78, 401.19 483.39 C 406.34 483.01, 409.69 482.43, 414.64 481.61 C 419.60 480.79, 422.22 480.26, 425.97 479.31 C 429.72 478.36, 431.98 477.56, 433.41 476.84 C 434.84 476.13, 434.69 475.64, 433.11 475.74 C 431.53 475.84, 429.28 476.59, 425.52 477.36 C 421.76 478.13, 419.21 478.79, 414.31 479.59 C 409.42 480.39, 406.09 481.01, 401.05 481.34 C 396.00 481.67, 393.37 481.67, 389.08 481.23 C 384.79 480.80, 382.73 480.25, 379.59 479.18 C 376.45 478.11, 375.16 477.43, 373.39 475.88 C 371.62 474.33, 371.01 473.52, 370.73 471.42 C 370.45 469.32, 370.68 468.10, 371.98 465.36 C 373.28 462.62, 374.43 460.90, 377.25 457.72 C 380.06 454.54, 382.07 452.65, 386.07 449.47 C 390.07 446.30, 392.65 444.52, 397.24 441.85 C 401.83 439.18, 404.59 437.86, 409.02 436.12 C 413.46 434.38, 415.83 433.83, 419.41 433.16 C 423.00 432.50, 424.62 432.69, 426.95 432.79 C 429.27 432.88, 430.06 433.07, 431.04 433.63 C 432.03 434.18, 432.13 434.57, 431.86 435.56 C 431.59 436.55, 431.08 437.15, 429.70 438.56 C 428.31 439.97, 427.19 440.91, 424.92 442.61 C 422.65 444.32, 421.17 445.34, 418.35 447.08 C 415.52 448.82, 413.77 449.78, 410.80 451.29 C 407.83 452.81, 406.16 453.49, 403.49 454.67 C 400.82 455.86, 399.45 456.31, 397.44 457.22 C 395.43 458.14, 394.60 458.56, 393.42 459.25 C 392.24 459.93, 391.84 460.13, 391.53 460.63 C 391.22 461.14, 391.31 461.54, 391.87 461.79" style="stroke: black; fill: black;"/><path d="M 467.25,448.35 C 466.65 448.75, 466.33 449.39, 465.43 450.79 C 464.54 452.20, 463.92 453.17, 462.80 455.39 C 461.67 457.61, 461.01 459.32, 459.81 461.90 C 458.62 464.48, 457.91 465.99, 456.84 468.29 C 455.76 470.60, 455.10 471.81, 454.46 473.42 C 453.82 475.03, 453.61 475.76, 453.65 476.33 C 453.70 476.90, 454.04 477.00, 454.69 476.27 C 455.34 475.55, 455.89 474.71, 456.90 472.69 C 457.92 470.67, 458.32 469.07, 459.75 466.16 C 461.19 463.25, 461.99 461.33, 464.08 458.15 C 466.18 454.96, 467.53 453.21, 470.22 450.25 C 472.91 447.29, 474.53 445.81, 477.52 443.35 C 480.52 440.89, 482.20 439.70, 485.18 437.94 C 488.17 436.19, 489.73 435.54, 492.44 434.58 C 495.16 433.61, 496.44 433.41, 498.77 433.13 C 501.10 432.86, 502.18 433.05, 504.09 433.19 C 506.00 433.33, 507.38 433.96, 508.30 433.85 C 509.22 433.75, 509.44 433.29, 508.68 432.66 C 507.91 432.02, 506.53 431.14, 504.48 430.67 C 502.44 430.20, 501.06 430.02, 498.46 430.28 C 495.86 430.54, 494.40 430.87, 491.49 431.97 C 488.57 433.07, 486.99 433.89, 483.89 435.81 C 480.80 437.72, 479.10 438.96, 476.02 441.52 C 472.93 444.09, 471.28 445.60, 468.45 448.61 C 465.61 451.62, 464.21 453.41, 461.85 456.58 C 459.49 459.76, 458.32 461.56, 456.63 464.49 C 454.94 467.43, 454.16 468.99, 453.41 471.26 C 452.66 473.53, 452.70 474.67, 452.89 475.84 C 453.08 477.00, 453.55 477.27, 454.38 477.08 C 455.20 476.90, 455.88 476.34, 457.02 474.92 C 458.16 473.49, 458.79 472.22, 460.06 469.95 C 461.34 467.69, 462.14 466.19, 463.40 463.60 C 464.66 461.01, 465.44 459.34, 466.37 457.01 C 467.31 454.67, 467.67 453.57, 468.08 451.93 C 468.50 450.29, 468.61 449.53, 468.44 448.82 C 468.28 448.10, 467.86 447.96, 467.25 448.35" style="stroke: black; fill: black;"/><path d="M 546.99,439.20 C 546.40 439.61, 546.12 440.19, 545.16 441.70 C 544.19 443.22, 543.52 444.23, 542.16 446.76 C 540.80 449.28, 540.03 451.18, 538.35 454.32 C 536.66 457.46, 535.62 459.36, 533.74 462.46 C 531.86 465.56, 530.55 467.20, 528.92 469.80 C 527.30 472.41, 526.38 473.75, 525.60 475.47 C 524.82 477.20, 524.77 478.03, 525.02 478.41 C 525.27 478.80, 525.76 478.58, 526.84 477.40 C 527.92 476.22, 528.66 475.10, 530.41 472.50 C 532.17 469.91, 533.16 467.86, 535.64 464.42 C 538.11 460.98, 539.66 458.81, 542.80 455.29 C 545.94 451.77, 547.86 449.87, 551.34 446.84 C 554.81 443.80, 556.89 442.27, 560.18 440.11 C 563.48 437.95, 565.22 437.17, 567.81 436.02 C 570.41 434.88, 571.51 434.49, 573.15 434.39 C 574.79 434.28, 575.31 434.50, 576.01 435.49 C 576.71 436.49, 576.72 437.34, 576.66 439.36 C 576.60 441.38, 576.36 442.77, 575.71 445.59 C 575.06 448.42, 574.55 450.32, 573.41 453.47 C 572.26 456.62, 571.32 458.47, 570.00 461.33 C 568.67 464.19, 567.60 465.60, 566.78 467.77 C 565.97 469.94, 565.69 471.08, 565.92 472.18 C 566.14 473.28, 566.63 473.68, 567.91 473.28 C 569.19 472.88, 570.17 472.21, 572.31 470.17 C 574.45 468.13, 575.63 466.22, 578.63 463.07 C 581.62 459.92, 583.54 457.81, 587.29 454.43 C 591.03 451.06, 593.34 449.13, 597.36 446.21 C 601.38 443.28, 603.66 441.81, 607.40 439.81 C 611.14 437.82, 613.11 437.17, 616.06 436.24 C 619.02 435.31, 620.27 435.11, 622.16 435.17 C 624.06 435.22, 624.69 435.48, 625.56 436.52 C 626.43 437.56, 626.54 438.36, 626.52 440.35 C 626.49 442.35, 626.15 443.66, 625.44 446.49 C 624.72 449.31, 624.16 451.20, 622.95 454.48 C 621.74 457.76, 620.82 459.68, 619.37 462.89 C 617.93 466.11, 616.82 467.80, 615.73 470.55 C 614.64 473.29, 614.37 474.66, 613.92 476.62 C 613.47 478.57, 613.48 479.21, 613.49 480.33 C 613.50 481.44, 613.61 481.70, 613.97 482.20 C 614.33 482.69, 614.87 482.78, 615.28 482.81 C 615.70 482.83, 615.99 482.61, 616.04 482.33 C 616.09 482.05, 615.70 481.57, 615.53 481.41 C 615.37 481.25, 615.30 481.48, 615.20 481.53 C 615.11 481.59, 615.01 481.89, 615.06 481.70 C 615.11 481.51, 615.15 481.47, 615.44 480.60 C 615.73 479.74, 615.88 479.15, 616.52 477.37 C 617.15 475.60, 617.53 474.38, 618.63 471.72 C 619.73 469.06, 620.58 467.30, 622.00 464.06 C 623.42 460.83, 624.40 458.91, 625.74 455.55 C 627.07 452.19, 627.95 450.36, 628.68 447.28 C 629.41 444.20, 629.69 442.61, 629.38 440.17 C 629.07 437.73, 628.53 436.55, 627.12 435.09 C 625.71 433.64, 624.68 433.12, 622.32 432.89 C 619.96 432.65, 618.51 432.88, 615.32 433.90 C 612.14 434.91, 610.22 435.83, 606.39 437.97 C 602.57 440.11, 600.30 441.63, 596.19 444.60 C 592.09 447.56, 589.76 449.51, 585.87 452.81 C 581.97 456.11, 579.91 458.13, 576.70 461.12 C 573.49 464.10, 571.76 465.56, 569.80 467.72 C 567.84 469.89, 567.43 471.00, 566.91 471.94 C 566.39 472.88, 566.66 472.99, 567.20 472.42 C 567.74 471.85, 568.46 471.05, 569.59 469.10 C 570.73 467.15, 571.54 465.58, 572.89 462.68 C 574.24 459.77, 575.12 457.84, 576.36 454.57 C 577.60 451.30, 578.43 449.42, 579.09 446.35 C 579.75 443.27, 579.96 441.64, 579.66 439.20 C 579.36 436.76, 578.90 435.57, 577.60 434.17 C 576.30 432.77, 575.33 432.31, 573.16 432.19 C 570.99 432.08, 569.61 432.37, 566.76 433.58 C 563.91 434.79, 562.28 435.91, 558.92 438.25 C 555.56 440.58, 553.51 442.15, 549.96 445.26 C 546.41 448.37, 544.46 450.30, 541.17 453.80 C 537.88 457.30, 536.22 459.42, 533.49 462.78 C 530.76 466.13, 529.25 467.88, 527.51 470.58 C 525.76 473.28, 525.22 474.65, 524.77 476.27 C 524.31 477.89, 524.62 478.56, 525.22 478.68 C 525.82 478.80, 526.49 478.31, 527.76 476.87 C 529.02 475.43, 529.86 474.06, 531.55 471.48 C 533.23 468.89, 534.28 467.07, 536.19 463.95 C 538.09 460.83, 539.22 458.96, 541.08 455.87 C 542.94 452.78, 544.15 451.10, 545.47 448.50 C 546.80 445.90, 547.18 444.64, 547.71 442.87 C 548.25 441.10, 548.28 440.38, 548.13 439.64 C 547.99 438.91, 547.59 438.78, 546.99 439.20" style="stroke: black; fill: black;"/><path d="M 698.50,441.47 C 698.29 440.84, 697.87 440.20, 696.74 439.44 C 695.62 438.67, 694.81 438.09, 692.88 437.64 C 690.95 437.19, 689.65 436.93, 687.10 437.19 C 684.55 437.45, 683.16 437.85, 680.14 438.95 C 677.12 440.05, 675.35 440.86, 672.00 442.69 C 668.64 444.52, 666.72 445.68, 663.38 448.10 C 660.05 450.53, 658.23 452.05, 655.32 454.83 C 652.42 457.60, 650.90 459.15, 648.84 461.96 C 646.79 464.77, 645.84 466.26, 645.05 468.88 C 644.25 471.50, 644.28 472.92, 644.88 475.06 C 645.49 477.21, 646.22 478.21, 648.06 479.60 C 649.90 480.99, 651.25 481.60, 654.07 482.00 C 656.90 482.40, 658.69 482.26, 662.18 481.62 C 665.67 480.98, 667.67 480.31, 671.51 478.80 C 675.35 477.30, 677.49 476.29, 681.39 474.07 C 685.30 471.85, 687.36 470.47, 691.03 467.72 C 694.70 464.98, 696.57 463.26, 699.75 460.34 C 702.93 457.41, 704.59 455.81, 706.93 453.09 C 709.27 450.38, 710.51 448.72, 711.46 446.78 C 712.41 444.84, 712.26 443.80, 711.66 443.41 C 711.07 443.01, 710.04 443.37, 708.48 444.80 C 706.92 446.24, 705.73 447.75, 703.86 450.58 C 702.00 453.41, 700.88 455.60, 699.17 458.95 C 697.46 462.31, 696.52 464.24, 695.33 467.36 C 694.14 470.48, 693.58 471.96, 693.22 474.54 C 692.86 477.12, 692.92 478.43, 693.53 480.26 C 694.14 482.09, 695.51 483.13, 696.26 483.70 C 697.00 484.26, 697.36 483.86, 697.25 483.07 C 697.14 482.27, 695.95 481.33, 695.70 479.72 C 695.45 478.11, 695.53 477.28, 696.00 475.02 C 696.47 472.76, 696.88 471.36, 698.07 468.44 C 699.26 465.52, 700.18 463.61, 701.94 460.42 C 703.70 457.23, 705.13 455.29, 706.87 452.50 C 708.60 449.71, 709.68 448.24, 710.62 446.47 C 711.55 444.70, 711.77 443.84, 711.53 443.65 C 711.30 443.45, 710.76 443.92, 709.44 445.47 C 708.13 447.03, 707.19 448.75, 704.95 451.40 C 702.71 454.06, 701.28 455.81, 698.24 458.74 C 695.21 461.66, 693.34 463.35, 689.76 466.03 C 686.17 468.70, 684.14 470.04, 680.31 472.13 C 676.49 474.22, 674.36 475.15, 670.64 476.47 C 666.91 477.79, 664.94 478.26, 661.70 478.73 C 658.47 479.19, 656.91 479.06, 654.47 478.81 C 652.04 478.56, 650.99 478.33, 649.52 477.46 C 648.05 476.60, 647.52 476.01, 647.14 474.46 C 646.76 472.91, 646.87 471.91, 647.63 469.72 C 648.40 467.53, 649.10 466.13, 650.98 463.50 C 652.85 460.88, 654.25 459.27, 657.02 456.59 C 659.79 453.92, 661.58 452.42, 664.83 450.12 C 668.08 447.83, 669.99 446.74, 673.26 445.12 C 676.53 443.50, 678.35 442.90, 681.18 442.02 C 684.01 441.14, 685.23 440.91, 687.43 440.72 C 689.64 440.53, 690.58 440.82, 692.19 441.08 C 693.81 441.34, 694.39 441.72, 695.51 442.02 C 696.63 442.32, 697.17 442.70, 697.77 442.59 C 698.37 442.48, 698.71 442.11, 698.50 441.47" style="stroke: black; fill: black;"/><path d="M 749.32,445.31 C 748.69 445.69, 748.35 446.33, 747.27 447.77 C 746.19 449.22, 745.41 450.15, 743.93 452.52 C 742.44 454.89, 741.60 456.74, 739.86 459.61 C 738.11 462.48, 736.99 464.17, 735.21 466.87 C 733.44 469.57, 732.23 470.96, 730.99 473.12 C 729.75 475.27, 729.25 476.37, 729.01 477.64 C 728.77 478.90, 729.02 479.45, 729.79 479.46 C 730.57 479.48, 731.34 479.20, 732.90 477.71 C 734.46 476.22, 735.30 474.78, 737.59 472.01 C 739.89 469.24, 741.21 467.20, 744.38 463.86 C 747.55 460.52, 749.59 458.54, 753.45 455.30 C 757.31 452.05, 759.65 450.29, 763.66 447.61 C 767.68 444.94, 769.88 443.63, 773.52 441.91 C 777.15 440.19, 779.05 439.70, 781.84 439.02 C 784.63 438.35, 785.79 438.22, 787.46 438.54 C 789.14 438.87, 789.60 439.28, 790.23 440.65 C 790.86 442.01, 790.81 443.04, 790.63 445.36 C 790.45 447.69, 790.18 449.21, 789.34 452.28 C 788.50 455.35, 787.77 457.33, 786.44 460.72 C 785.11 464.12, 784.12 466.04, 782.67 469.27 C 781.22 472.51, 780.21 474.17, 779.20 476.91 C 778.18 479.66, 777.97 481.02, 777.60 482.98 C 777.23 484.95, 777.24 485.61, 777.34 486.75 C 777.44 487.90, 777.75 488.26, 778.12 488.73 C 778.48 489.20, 778.89 489.13, 779.16 489.10 C 779.43 489.07, 779.44 488.75, 779.45 488.58 C 779.46 488.40, 779.21 488.57, 779.20 488.23 C 779.19 487.88, 779.18 487.77, 779.38 486.85 C 779.58 485.92, 779.65 485.39, 780.19 483.62 C 780.73 481.85, 781.08 480.64, 782.09 478.00 C 783.09 475.35, 783.83 473.64, 785.22 470.39 C 786.62 467.15, 787.64 465.24, 789.07 461.79 C 790.50 458.33, 791.44 456.40, 792.38 453.13 C 793.31 449.86, 793.78 448.17, 793.75 445.45 C 793.71 442.73, 793.35 441.35, 792.19 439.54 C 791.04 437.73, 790.16 437.02, 787.97 436.42 C 785.78 435.81, 784.33 435.83, 781.25 436.54 C 778.17 437.25, 776.31 438.09, 772.57 439.97 C 768.84 441.86, 766.65 443.22, 762.56 445.97 C 758.47 448.72, 756.12 450.48, 752.15 453.72 C 748.17 456.96, 746.07 458.93, 742.68 462.16 C 739.28 465.40, 737.60 467.20, 735.16 469.91 C 732.73 472.62, 731.65 473.91, 730.49 475.70 C 729.32 477.49, 729.30 478.27, 729.34 478.84 C 729.37 479.40, 729.77 479.31, 730.64 478.52 C 731.52 477.73, 732.28 476.87, 733.73 474.90 C 735.18 472.92, 736.10 471.34, 737.89 468.64 C 739.69 465.94, 740.83 464.24, 742.70 461.41 C 744.57 458.59, 745.83 456.97, 747.24 454.51 C 748.66 452.05, 749.13 450.86, 749.77 449.13 C 750.41 447.40, 750.55 446.61, 750.46 445.85 C 750.37 445.09, 749.96 444.92, 749.32 445.31" style="stroke: black; fill: black;"/><path d="M 957.62,386.25 C 957.04 386.70, 956.73 387.25, 955.83 388.91 C 954.93 390.56, 954.41 391.55, 953.11 394.53 C 951.81 397.50, 951.20 399.61, 949.32 403.78 C 947.45 407.95, 946.19 410.50, 943.73 415.38 C 941.27 420.25, 939.68 423.00, 937.02 428.17 C 934.35 433.34, 932.89 436.15, 930.40 441.23 C 927.91 446.32, 926.62 448.97, 924.58 453.60 C 922.55 458.23, 921.61 460.48, 920.23 464.37 C 918.84 468.25, 918.22 469.99, 917.67 473.02 C 917.12 476.05, 917.10 477.41, 917.47 479.52 C 917.83 481.64, 918.30 482.51, 919.49 483.58 C 920.68 484.66, 921.54 484.95, 923.42 484.89 C 925.30 484.82, 926.53 484.53, 928.89 483.28 C 931.24 482.03, 932.49 480.88, 935.20 478.63 C 937.91 476.37, 939.39 474.83, 942.45 471.99 C 945.50 469.15, 947.29 467.42, 950.47 464.43 C 953.65 461.43, 955.40 459.67, 958.34 457.01 C 961.29 454.35, 963.09 452.91, 965.19 451.15 C 967.29 449.38, 967.94 448.48, 968.84 448.18 C 969.75 447.87, 969.67 448.24, 969.70 449.63 C 969.74 451.01, 969.34 452.34, 969.03 455.10 C 968.71 457.86, 968.43 459.98, 968.12 463.43 C 967.80 466.88, 967.53 468.99, 967.46 472.37 C 967.39 475.75, 967.30 477.47, 967.78 480.32 C 968.26 483.18, 968.67 484.50, 969.87 486.64 C 971.06 488.79, 971.89 489.78, 973.74 491.03 C 975.59 492.28, 976.71 492.68, 979.13 492.90 C 981.55 493.12, 983.00 493.07, 985.84 492.14 C 988.68 491.21, 990.21 490.35, 993.34 488.25 C 996.46 486.15, 998.09 484.79, 1001.46 481.65 C 1004.82 478.50, 1006.62 476.59, 1010.17 472.51 C 1013.72 468.43, 1015.64 466.02, 1019.20 461.25 C 1022.76 456.47, 1024.65 453.75, 1027.96 448.62 C 1031.28 443.48, 1032.95 440.66, 1035.77 435.56 C 1038.60 430.46, 1039.92 427.80, 1042.09 423.11 C 1044.25 418.42, 1045.15 416.09, 1046.60 412.10 C 1048.05 408.11, 1048.70 406.26, 1049.34 403.17 C 1049.99 400.08, 1049.87 398.65, 1049.82 396.65 C 1049.77 394.64, 1049.39 393.85, 1049.07 393.16 C 1048.75 392.47, 1048.46 392.53, 1048.21 393.20 C 1047.95 393.88, 1048.05 394.64, 1047.79 396.54 C 1047.52 398.43, 1047.49 399.68, 1046.88 402.66 C 1046.26 405.65, 1045.99 407.51, 1044.72 411.45 C 1043.45 415.40, 1042.59 417.73, 1040.52 422.40 C 1038.45 427.07, 1037.15 429.72, 1034.38 434.79 C 1031.60 439.87, 1029.94 442.67, 1026.64 447.76 C 1023.34 452.85, 1021.45 455.54, 1017.87 460.25 C 1014.30 464.95, 1012.35 467.32, 1008.78 471.27 C 1005.20 475.23, 1003.37 477.08, 999.99 480.02 C 996.62 482.97, 994.93 484.18, 991.90 485.99 C 988.87 487.80, 987.36 488.24, 984.84 489.06 C 982.32 489.87, 981.23 490.09, 979.30 490.05 C 977.37 490.01, 976.60 489.80, 975.19 488.87 C 973.79 487.93, 973.16 487.18, 972.27 485.38 C 971.39 483.58, 971.14 482.44, 970.78 479.86 C 970.43 477.27, 970.36 475.67, 970.49 472.46 C 970.63 469.25, 971.02 467.22, 971.45 463.79 C 971.88 460.36, 972.59 458.27, 972.64 455.33 C 972.69 452.39, 972.49 450.83, 971.70 449.10 C 970.91 447.36, 970.35 446.70, 968.69 446.66 C 967.04 446.61, 965.83 447.14, 963.42 448.86 C 961.02 450.57, 959.58 452.44, 956.67 455.21 C 953.76 457.99, 952.06 459.75, 948.87 462.73 C 945.69 465.71, 943.87 467.40, 940.75 470.10 C 937.63 472.80, 936.01 474.19, 933.30 476.22 C 930.58 478.26, 929.24 479.04, 927.19 480.29 C 925.15 481.53, 924.37 482.04, 923.08 482.43 C 921.79 482.82, 921.41 482.85, 920.75 482.22 C 920.09 481.58, 919.89 480.99, 919.78 479.24 C 919.67 477.49, 919.71 476.31, 920.19 473.46 C 920.66 470.62, 920.97 468.85, 922.17 465.02 C 923.38 461.19, 924.27 458.92, 926.22 454.30 C 928.17 449.69, 929.44 447.04, 931.91 441.97 C 934.37 436.90, 935.83 434.10, 938.54 428.96 C 941.24 423.82, 942.85 421.09, 945.44 416.27 C 948.03 411.44, 949.38 408.91, 951.49 404.82 C 953.60 400.73, 954.64 398.80, 956.00 395.82 C 957.37 392.84, 957.75 391.76, 958.31 389.94 C 958.86 388.11, 958.89 387.42, 958.75 386.68 C 958.62 385.95, 958.21 385.81, 957.62 386.25" style="stroke: black; fill: black;"/><path d="M 1067.21,468.27 C 1068.00 468.43, 1068.89 468.30, 1070.69 467.84 C 1072.49 467.39, 1073.68 467.03, 1076.20 465.99 C 1078.73 464.96, 1080.38 464.18, 1083.32 462.65 C 1086.25 461.13, 1087.91 460.13, 1090.88 458.35 C 1093.85 456.57, 1095.51 455.62, 1098.18 453.76 C 1100.86 451.90, 1102.28 450.96, 1104.26 449.06 C 1106.24 447.15, 1107.12 446.13, 1108.08 444.24 C 1109.04 442.34, 1109.35 441.27, 1109.03 439.58 C 1108.72 437.89, 1108.21 436.93, 1106.51 435.80 C 1104.80 434.68, 1103.48 434.04, 1100.50 433.93 C 1097.53 433.83, 1095.62 434.19, 1091.63 435.27 C 1087.64 436.35, 1085.18 437.21, 1080.55 439.33 C 1075.91 441.46, 1073.13 442.95, 1068.44 445.90 C 1063.75 448.85, 1061.16 450.70, 1057.09 454.07 C 1053.02 457.44, 1050.99 459.34, 1048.09 462.75 C 1045.19 466.17, 1043.93 467.93, 1042.59 471.15 C 1041.26 474.37, 1040.99 476.02, 1041.41 478.86 C 1041.84 481.69, 1042.58 483.15, 1044.72 485.33 C 1046.87 487.51, 1048.54 488.41, 1052.13 489.76 C 1055.71 491.11, 1057.95 491.56, 1062.64 492.08 C 1067.33 492.59, 1070.13 492.59, 1075.58 492.35 C 1081.02 492.11, 1084.14 491.75, 1089.88 490.88 C 1095.61 490.00, 1101.44 488.87, 1104.25 487.98 C 1107.06 487.08, 1106.86 486.15, 1103.94 486.39 C 1101.01 486.63, 1095.31 488.35, 1089.62 489.17 C 1083.94 489.99, 1080.85 490.33, 1075.51 490.48 C 1070.16 490.63, 1067.40 490.54, 1062.91 489.93 C 1058.41 489.32, 1056.29 488.73, 1053.03 487.43 C 1049.77 486.13, 1048.47 485.21, 1046.61 483.42 C 1044.76 481.63, 1044.14 480.77, 1043.76 478.49 C 1043.37 476.21, 1043.52 474.91, 1044.69 472.01 C 1045.87 469.12, 1046.90 467.33, 1049.62 464.03 C 1052.33 460.72, 1054.30 458.79, 1058.27 455.49 C 1062.23 452.18, 1064.80 450.34, 1069.43 447.49 C 1074.06 444.65, 1076.84 443.20, 1081.40 441.26 C 1085.96 439.33, 1088.44 438.61, 1092.24 437.82 C 1096.04 437.02, 1097.80 437.27, 1100.42 437.31 C 1103.03 437.35, 1103.99 437.50, 1105.30 438.02 C 1106.62 438.54, 1106.90 438.92, 1107.00 439.90 C 1107.11 440.88, 1106.80 441.53, 1105.83 442.91 C 1104.86 444.29, 1104.02 445.12, 1102.15 446.81 C 1100.29 448.49, 1099.04 449.54, 1096.49 451.34 C 1093.94 453.14, 1092.32 454.14, 1089.39 455.80 C 1086.47 457.47, 1084.79 458.34, 1081.86 459.68 C 1078.93 461.03, 1077.17 461.44, 1074.72 462.53 C 1072.27 463.63, 1071.21 464.25, 1069.62 465.16 C 1068.02 466.06, 1067.24 466.43, 1066.76 467.05 C 1066.28 467.68, 1066.42 468.12, 1067.21 468.27" style="stroke: black; fill: black;"/><path d="M 1180.67,398.82 C 1180.08 399.18, 1179.76 399.61, 1178.79 401.12 C 1177.83 402.63, 1177.22 403.54, 1175.86 406.37 C 1174.50 409.19, 1173.84 411.31, 1171.98 415.25 C 1170.13 419.18, 1168.94 421.57, 1166.58 426.04 C 1164.22 430.51, 1162.78 433.05, 1160.20 437.60 C 1157.62 442.14, 1156.12 444.53, 1153.69 448.77 C 1151.26 453.01, 1150.04 455.16, 1148.05 458.81 C 1146.06 462.46, 1145.05 464.18, 1143.74 467.01 C 1142.42 469.85, 1141.87 471.11, 1141.47 473.00 C 1141.08 474.90, 1141.19 475.66, 1141.77 476.48 C 1142.35 477.31, 1142.98 477.48, 1144.37 477.13 C 1145.77 476.78, 1146.69 476.31, 1148.74 474.74 C 1150.79 473.18, 1151.86 471.72, 1154.62 469.29 C 1157.38 466.87, 1159.06 465.24, 1162.53 462.61 C 1166.00 459.98, 1168.07 458.49, 1171.97 456.15 C 1175.87 453.80, 1178.10 452.57, 1182.03 450.89 C 1185.95 449.21, 1188.09 448.53, 1191.59 447.75 C 1195.10 446.96, 1196.82 446.89, 1199.55 446.98 C 1202.29 447.07, 1203.49 447.33, 1205.28 448.20 C 1207.07 449.08, 1207.76 449.80, 1208.52 451.35 C 1209.28 452.90, 1209.36 453.86, 1209.08 455.94 C 1208.80 458.02, 1208.44 459.26, 1207.12 461.74 C 1205.81 464.22, 1204.89 465.73, 1202.51 468.35 C 1200.12 470.97, 1198.51 472.39, 1195.19 474.84 C 1191.88 477.29, 1189.81 478.57, 1185.93 480.60 C 1182.04 482.64, 1179.78 483.57, 1175.77 485.02 C 1171.76 486.48, 1169.56 487.08, 1165.86 487.87 C 1162.15 488.67, 1160.25 488.82, 1157.23 489.01 C 1154.22 489.20, 1152.81 489.05, 1150.77 488.83 C 1148.73 488.61, 1148.01 488.50, 1147.05 487.93 C 1146.09 487.36, 1146.35 486.30, 1145.96 485.98 C 1145.57 485.66, 1145.10 485.64, 1145.09 486.32 C 1145.08 486.99, 1144.86 488.33, 1145.92 489.35 C 1146.97 490.38, 1148.05 490.99, 1150.36 491.46 C 1152.66 491.93, 1154.23 491.96, 1157.43 491.70 C 1160.63 491.44, 1162.56 491.06, 1166.38 490.14 C 1170.19 489.21, 1172.41 488.58, 1176.52 487.07 C 1180.63 485.55, 1182.93 484.61, 1186.94 482.55 C 1190.95 480.49, 1193.07 479.23, 1196.58 476.76 C 1200.08 474.29, 1201.80 472.91, 1204.47 470.21 C 1207.13 467.50, 1208.38 466.02, 1209.89 463.22 C 1211.39 460.42, 1211.82 458.83, 1212.00 456.22 C 1212.18 453.61, 1211.88 452.24, 1210.77 450.18 C 1209.66 448.12, 1208.66 447.12, 1206.43 445.94 C 1204.21 444.76, 1202.71 444.39, 1199.64 444.29 C 1196.56 444.20, 1194.75 444.55, 1191.06 445.47 C 1187.36 446.39, 1185.21 447.15, 1181.17 448.91 C 1177.13 450.67, 1174.88 451.93, 1170.86 454.28 C 1166.85 456.62, 1164.75 458.11, 1161.10 460.64 C 1157.46 463.16, 1155.60 464.65, 1152.65 466.90 C 1149.71 469.15, 1148.25 470.23, 1146.39 471.91 C 1144.53 473.59, 1144.10 474.48, 1143.37 475.31 C 1142.63 476.14, 1142.64 476.39, 1142.71 476.07 C 1142.77 475.74, 1143.01 475.28, 1143.70 473.69 C 1144.38 472.10, 1144.88 470.88, 1146.13 468.10 C 1147.37 465.32, 1148.08 463.47, 1149.92 459.80 C 1151.77 456.12, 1152.96 453.96, 1155.35 449.71 C 1157.73 445.46, 1159.23 443.07, 1161.84 438.54 C 1164.46 434.00, 1165.93 431.47, 1168.41 427.04 C 1170.90 422.61, 1172.18 420.25, 1174.27 416.40 C 1176.36 412.56, 1177.48 410.66, 1178.87 407.83 C 1180.25 405.00, 1180.62 403.97, 1181.19 402.27 C 1181.77 400.56, 1181.85 400.00, 1181.75 399.31 C 1181.64 398.62, 1181.26 398.46, 1180.67 398.82" style="stroke: black; fill: black;"/><path d="M 1238.58,470.92 C 1239.09 471.33, 1239.66 471.63, 1241.18 471.77 C 1242.71 471.91, 1243.72 472.03, 1246.21 471.62 C 1248.71 471.22, 1250.44 470.77, 1253.65 469.76 C 1256.86 468.74, 1258.83 467.95, 1262.26 466.55 C 1265.70 465.14, 1267.55 464.28, 1270.82 462.73 C 1274.10 461.18, 1275.90 460.39, 1278.62 458.82 C 1281.34 457.24, 1282.67 456.45, 1284.44 454.84 C 1286.20 453.23, 1286.87 452.38, 1287.43 450.76 C 1288.00 449.14, 1288.03 448.17, 1287.27 446.75 C 1286.51 445.32, 1285.75 444.48, 1283.63 443.64 C 1281.51 442.80, 1279.94 442.47, 1276.69 442.56 C 1273.44 442.65, 1271.42 443.02, 1267.36 444.08 C 1263.30 445.14, 1260.91 445.99, 1256.39 447.87 C 1251.88 449.75, 1249.19 451.02, 1244.79 453.50 C 1240.39 455.98, 1238.03 457.49, 1234.39 460.28 C 1230.76 463.07, 1229.04 464.60, 1226.61 467.44 C 1224.18 470.28, 1223.10 471.70, 1222.23 474.48 C 1221.36 477.26, 1221.42 478.79, 1222.25 481.35 C 1223.09 483.90, 1223.97 485.29, 1226.40 487.25 C 1228.83 489.21, 1230.61 489.96, 1234.41 491.17 C 1238.21 492.38, 1240.59 492.76, 1245.39 493.31 C 1250.19 493.86, 1252.97 493.97, 1258.40 493.91 C 1263.83 493.86, 1266.94 493.62, 1272.56 493.04 C 1278.18 492.45, 1281.17 491.97, 1286.51 490.99 C 1291.86 490.02, 1294.79 489.28, 1299.28 488.17 C 1303.77 487.06, 1305.92 486.51, 1308.94 485.44 C 1311.96 484.37, 1313.36 483.53, 1314.38 482.82 C 1315.39 482.11, 1315.24 481.76, 1314.03 481.89 C 1312.81 482.02, 1311.35 482.57, 1308.30 483.45 C 1305.25 484.32, 1303.21 485.10, 1298.79 486.26 C 1294.37 487.43, 1291.47 488.26, 1286.19 489.27 C 1280.91 490.28, 1277.94 490.76, 1272.38 491.32 C 1266.83 491.87, 1263.74 492.07, 1258.40 492.05 C 1253.05 492.03, 1250.30 491.85, 1245.66 491.20 C 1241.02 490.55, 1238.70 490.02, 1235.20 488.79 C 1231.70 487.56, 1230.28 486.68, 1228.15 485.04 C 1226.03 483.39, 1225.27 482.52, 1224.56 480.56 C 1223.86 478.60, 1223.86 477.57, 1224.62 475.24 C 1225.37 472.91, 1226.15 471.58, 1228.35 468.91 C 1230.56 466.24, 1232.17 464.64, 1235.65 461.91 C 1239.14 459.18, 1241.47 457.66, 1245.78 455.25 C 1250.09 452.85, 1252.77 451.60, 1257.20 449.87 C 1261.64 448.14, 1264.04 447.39, 1267.95 446.59 C 1271.86 445.78, 1273.79 445.88, 1276.75 445.86 C 1279.70 445.85, 1280.96 446.12, 1282.72 446.51 C 1284.49 446.90, 1285.01 447.13, 1285.57 447.81 C 1286.12 448.49, 1286.08 448.92, 1285.49 449.90 C 1284.91 450.88, 1284.31 451.43, 1282.64 452.70 C 1280.97 453.98, 1279.74 454.76, 1277.14 456.27 C 1274.54 457.79, 1272.84 458.75, 1269.65 460.27 C 1266.47 461.79, 1264.61 462.63, 1261.22 463.88 C 1257.84 465.12, 1255.85 465.68, 1252.71 466.49 C 1249.57 467.31, 1247.86 467.42, 1245.51 467.93 C 1243.17 468.45, 1242.36 468.72, 1240.99 469.07 C 1239.61 469.43, 1239.12 469.33, 1238.63 469.69 C 1238.15 470.06, 1238.07 470.50, 1238.58 470.92" style="stroke: black; fill: black;"/><path d="M 1342.20,455.08 C 1341.59 455.30, 1341.21 455.67, 1340.16 456.81 C 1339.10 457.96, 1338.35 458.71, 1336.91 460.81 C 1335.47 462.91, 1334.61 464.52, 1332.97 467.31 C 1331.32 470.09, 1330.39 471.88, 1328.67 474.75 C 1326.95 477.62, 1325.86 479.16, 1324.35 481.64 C 1322.83 484.12, 1321.98 485.37, 1321.10 487.15 C 1320.21 488.93, 1319.94 489.75, 1319.93 490.54 C 1319.92 491.33, 1320.27 491.58, 1321.06 491.09 C 1321.84 490.60, 1322.57 489.94, 1323.85 488.10 C 1325.14 486.25, 1325.69 484.71, 1327.49 481.87 C 1329.30 479.03, 1330.32 477.18, 1332.89 473.91 C 1335.46 470.64, 1337.06 468.67, 1340.33 465.51 C 1343.59 462.36, 1345.48 460.74, 1349.22 458.14 C 1352.95 455.54, 1355.09 454.44, 1359.01 452.51 C 1362.93 450.58, 1365.02 449.68, 1368.81 448.48 C 1372.60 447.29, 1374.50 446.96, 1377.95 446.55 C 1381.40 446.14, 1383.05 446.25, 1386.05 446.45 C 1389.05 446.66, 1390.53 447.07, 1392.96 447.56 C 1395.40 448.05, 1396.46 448.50, 1398.20 448.92 C 1399.94 449.34, 1400.89 449.71, 1401.66 449.67 C 1402.43 449.62, 1402.60 449.30, 1402.07 448.71 C 1401.54 448.11, 1400.70 447.51, 1399.01 446.69 C 1397.31 445.88, 1396.17 445.22, 1393.60 444.63 C 1391.03 444.04, 1389.37 443.83, 1386.18 443.74 C 1382.98 443.66, 1381.24 443.66, 1377.63 444.19 C 1374.03 444.73, 1372.05 445.12, 1368.14 446.42 C 1364.24 447.71, 1362.12 448.66, 1358.10 450.67 C 1354.08 452.68, 1351.91 453.80, 1348.05 456.46 C 1344.20 459.11, 1342.25 460.76, 1338.83 463.93 C 1335.41 467.09, 1333.77 469.08, 1330.94 472.28 C 1328.10 475.48, 1326.71 477.13, 1324.65 479.92 C 1322.60 482.71, 1321.66 484.15, 1320.66 486.25 C 1319.67 488.35, 1319.61 489.41, 1319.66 490.41 C 1319.72 491.41, 1320.15 491.59, 1320.94 491.26 C 1321.73 490.92, 1322.37 490.31, 1323.61 488.74 C 1324.85 487.16, 1325.59 485.84, 1327.14 483.37 C 1328.69 480.90, 1329.59 479.23, 1331.35 476.39 C 1333.11 473.55, 1334.19 471.86, 1335.95 469.16 C 1337.72 466.46, 1338.85 465.07, 1340.16 462.90 C 1341.46 460.73, 1341.87 459.75, 1342.48 458.32 C 1343.09 456.88, 1343.27 456.38, 1343.21 455.73 C 1343.16 455.08, 1342.81 454.86, 1342.20 455.08" style="stroke: black; fill: black;"/></svg>